#N canvas 8 10 502 641 10;
#X obj 30 101 gemwin;
#X msg 30 25 dimen 320 240;
#X msg 54 51 create \, 1;
#X msg 49 77 0 \, destroy;
#X obj 209 152 gemhead;
#X obj 221 218 bng 15 250 50 0 empty empty empty 17 7 0 10 -262144
-1 -1;
#X obj 221 241 openpanel;
#X obj 285 243 tgl 15 0 empty empty empty 17 7 0 10 -262144 -1 -1 0
1;
#X obj 209 293 pix_film;
#X msg 30 229 \; pd dsp \$1;
#X obj 30 200 tgl 15 0 empty empty empty 17 7 0 10 -262144 -1 -1 0
1;
#X msg 285 268 auto \$1;
#X msg 221 267 open \$1;
#X obj 209 127 tgl 15 0 empty empty empty 17 7 0 10 -262144 -1 -1 0
1;
#X obj 209 381 pix_mix 0;
#X obj 209 407 pix_texture;
#X obj 209 432 rectangle 6 4;
#X obj 330 388 hsl 128 15 0 1 0 0 empty empty empty -2 -8 0 10 -262144
-1 -1 0 1;
#X obj 231 319 unpack f f f;
#X floatatom 231 347 5 0 0 0 - - -;
#X floatatom 268 347 5 0 0 0 - - -;
#X floatatom 306 347 5 0 0 0 - - -;
#X obj 371 152 gemhead;
#X obj 383 218 bng 15 250 50 0 empty empty empty 17 7 0 10 -262144
-1 -1;
#X obj 383 241 openpanel;
#X obj 447 243 tgl 15 0 empty empty empty 17 7 0 10 -262144 -1 -1 0
1;
#X obj 371 293 pix_film;
#X msg 447 268 auto \$1;
#X msg 383 267 open \$1;
#X obj 371 127 tgl 15 0 empty empty empty 17 7 0 10 -262144 -1 -1 0
1;
#X obj 393 319 unpack f f f;
#X floatatom 393 347 5 0 0 0 - - -;
#X floatatom 430 347 5 0 0 0 - - -;
#X floatatom 468 347 5 0 0 0 - - -;
#X connect 1 0 0 0;
#X connect 2 0 0 0;
#X connect 3 0 0 0;
#X connect 4 0 8 0;
#X connect 5 0 6 0;
#X connect 6 0 12 0;
#X connect 7 0 11 0;
#X connect 8 0 14 0;
#X connect 8 1 18 0;
#X connect 10 0 9 0;
#X connect 11 0 8 0;
#X connect 12 0 8 0;
#X connect 13 0 4 0;
#X connect 14 0 15 0;
#X connect 15 0 16 0;
#X connect 17 0 14 2;
#X connect 18 0 19 0;
#X connect 18 1 20 0;
#X connect 18 2 21 0;
#X connect 22 0 26 0;
#X connect 23 0 24 0;
#X connect 24 0 28 0;
#X connect 25 0 27 0;
#X connect 26 0 14 1;
#X connect 26 1 30 0;
#X connect 27 0 26 0;
#X connect 28 0 26 0;
#X connect 29 0 22 0;
#X connect 30 0 31 0;
#X connect 30 1 32 0;
#X connect 30 2 33 0;
