#N canvas 17 14 878 641 10;
#X obj 6 20 tgl 15 0 empty empty empty 17 7 0 10 -262144 -1 -1 0 1
;
#X msg 6 51 \; pd dsp \$1;
#N canvas 0 0 450 300 (subpatch) 0;
#X array channelL 100 float 3;
#A 0 0 0 0 0 0 0 0 0 0 0 0 0 0 0 0 0 0 0 0 0 0 0 0 0 0 0 0 0 0 0 0
0 0 0 0 0 0 0 0 0 0 0 0 0 0 0 0 0 0 0 0 0 0 0 0 0 0 0 0 0 0 0 0 0 0
0 0 0 0 0 0 0 0 0 0 0 0 0 0 0 0 0 0 0 0 0 0 0 0 0 0 0 0 0 0 0 0 0 0
0;
#X coords 0 1 99 -1 200 140 1;
#X restore 5 124 graph;
#N canvas 0 0 450 300 (subpatch) 0;
#X array channelR 100 float 3;
#A 0 0 0 0 0 0 0 0 0 0 0 0 0 0 0 0 0 0 0 0 0 0 0 0 0 0 0 0 0 0 0 0
0 0 0 0 0 0 0 0 0 0 0 0 0 0 0 0 0 0 0 0 0 0 0 0 0 0 0 0 0 0 0 0 0 0
0 0 0 0 0 0 0 0 0 0 0 0 0 0 0 0 0 0 0 0 0 0 0 0 0 0 0 0 0 0 0 0 0 0
0;
#X coords 0 1 99 -1 200 140 1;
#X restore 4 291 graph;
#X obj 384 26 bng 15 250 50 0 empty empty empty 17 7 0 10 -262144 -1
-1;
#X obj 384 98 soundfiler;
#X msg 384 73 read -resize \$1 channelL channelR;
#X obj 384 48 openpanel;
#X obj 384 168 expr 44100 / $f1;
#X floatatom 416 123 5 0 0 0 - - -;
#X obj 416 145 s sample_size;
#X floatatom 414 192 5 0 0 0 - - -;
#X obj 384 215 phasor~;
#X obj 384 261 *~;
#X obj 414 238 r sample_size;
#X obj 383 301 tabread4~ channelL;
#X obj 461 324 tabread4~ channelR;
#X obj 384 525 dac~ 1 2;
#X obj 383 349 *~;
#X obj 460 349 *~;
#X obj 594 291 vsl 25 55 0 127 0 0 empty empty empty 0 -9 0 10 -262144
-1 -1 0 1;
#X text 587 355 Volume;
#X obj 240 316 metro 50;
#X obj 240 292 tgl 15 0 empty empty empty 17 7 0 10 -262144 -1 -1 0
1;
#X obj 240 363 snapshot~;
#X floatatom 240 386 5 0 0 0 - - -;
#X obj 240 409 /;
#X obj 280 386 r sample_size;
#X floatatom 240 435 5 0 0 0 - - -;
#X obj 6 451 hsl 195 15 0 1 0 0 empty empty empty -2 -8 0 10 -262144
-1 -1 0 1;
#X obj 383 374 mVU~;
#X connect 0 0 1 0;
#X connect 4 0 7 0;
#X connect 5 0 9 0;
#X connect 5 0 8 0;
#X connect 6 0 5 0;
#X connect 7 0 6 0;
#X connect 8 0 11 0;
#X connect 8 0 12 0;
#X connect 9 0 10 0;
#X connect 12 0 13 0;
#X connect 13 0 15 0;
#X connect 13 0 16 0;
#X connect 13 0 24 0;
#X connect 14 0 13 1;
#X connect 15 0 18 0;
#X connect 16 0 19 0;
#X connect 18 0 30 0;
#X connect 19 0 30 1;
#X connect 20 0 19 1;
#X connect 20 0 18 1;
#X connect 22 0 24 0;
#X connect 23 0 22 0;
#X connect 24 0 25 0;
#X connect 25 0 26 0;
#X connect 26 0 28 0;
#X connect 27 0 26 1;
#X connect 28 0 29 0;
#X connect 30 0 17 0;
#X connect 30 1 17 1;
