#N canvas 9 5 1330 646 10;
#X obj 34 81 bng 15 250 50 0 empty empty empty 17 7 0 10 -262144 -1
-1;
#X msg 34 136 Hello;
#X msg 139 132 10;
#X msg 213 128 5;
#X obj 172 40 bng 15 250 50 0 empty empty empty 17 7 0 10 -262144 -1
-1;
#X obj 169 175 +;
#X obj 34 203 print;
#X obj 162 87 t b b;
#X floatatom 169 216 5 0 0 0 - - -;
#X obj 310 130 metro 500;
#X msg 293 24 1;
#X msg 371 31 0;
#X msg 294 70 bang;
#X msg 368 67 stop;
#X obj 311 179 bng 15 250 50 0 empty empty empty 17 7 0 10 -262144
-1 -1;
#X obj 300 429 metro;
#X msg 329 306 60000;
#X obj 367 343 /;
#X obj 300 264 t b b b;
#X obj 300 219 bng 15 250 50 0 empty empty empty 17 7 0 10 -262144
-1 -1;
#X obj 367 388 i;
#X floatatom 423 373 5 0 0 0 - - -;
#X floatatom 424 425 5 0 0 0 - - -;
#X obj 233 476 bng 15 250 50 0 empty empty empty 17 7 0 10 -262144
-1 -1;
#X floatatom 431 301 5 0 0 0 - - -;
#X msg 245 281 0;
#X msg 443 245 60;
#X obj 403 191 loadbang;
#X obj 301 480 i;
#X obj 352 481 + 1;
#X obj 300 547 % 8;
#X floatatom 299 516 5 0 0 0 - - -;
#X floatatom 298 578 5 0 0 0 - - -;
#X obj 620 581 noteout 1;
#X msg 620 473 64;
#X msg 660 472 71;
#X msg 698 471 79;
#X obj 620 429 t b b b;
#X obj 620 379 bng 15 250 50 0 empty empty empty 17 7 0 10 -262144
-1 -1;
#X obj 655 393 spigot;
#X msg 655 357 100;
#X msg 729 343 1;
#X msg 728 370 0;
#X obj 826 323 moses 50;
#X obj 419 541 sel 0 1 2 3 4 5 6 7;
#X obj 620 522 makenote 64 500;
#X text 649 54 bng (bang);
#X text 648 85 tgl (toggle);
#X text 650 120 knob;
#X obj 614 55 bng 15 250 50 0 empty empty empty 17 7 0 10 -262144 -1
-1;
#X obj 614 87 tgl 15 0 empty empty empty 17 7 0 10 -262144 -1 -1 0
1;
#X obj 602 121 knob 32 32 0 127 0 0 empty empty empty 0 -8 0 8 -262144
-1 -1 0 1;
#X msg 826 212 37 40 42 46;
#X obj 826 248 unpack f f f f;
#X obj 834 60 s note;
#X obj 832 101 r note;
#X obj 1043 124 tabwrite pitches;
#N canvas 0 0 450 300 (subpatch) 0;
#X array pitches 10 float 1;
#A 0 1 -1 0.6 -0.1 0.5 0.8 0 0.3 -0.8 1;
#X coords 0 1 9 -1 200 140 1 0 0;
#X restore 1047 286 graph;
#X floatatom 1050 512 5 0 0 0 - - -;
#X floatatom 1134 79 5 0 0 0 - - -;
#X floatatom 1050 441 5 0 10 0 - - -;
#X floatatom 1043 81 5 -1 1 0 - - -;
#X msg 1045 215 \; pitches 0 1 -1 0.6 -0.1 0.5 0.8 0 0.3 -0.8 1;
#X msg 1045 165 \; pitches resize 10;
#X msg 1185 164 \; pitches boounds 0 1 9 -1;
#X obj 1039 35 table melody;
#X obj 1050 477 tabread pitches;
#X obj 1171 477 expr pitches[$f1];
#X connect 0 0 1 0;
#X connect 1 0 6 0;
#X connect 2 0 5 0;
#X connect 3 0 5 1;
#X connect 4 0 7 0;
#X connect 5 0 8 0;
#X connect 7 0 2 0;
#X connect 7 1 3 0;
#X connect 9 0 14 0;
#X connect 10 0 9 0;
#X connect 11 0 9 0;
#X connect 12 0 9 0;
#X connect 13 0 9 0;
#X connect 15 0 23 0;
#X connect 15 0 28 0;
#X connect 16 0 17 0;
#X connect 17 0 20 0;
#X connect 17 0 21 0;
#X connect 18 0 15 0;
#X connect 18 1 16 0;
#X connect 18 2 24 0;
#X connect 19 0 18 0;
#X connect 20 0 15 1;
#X connect 20 0 22 0;
#X connect 24 0 17 1;
#X connect 25 0 15 0;
#X connect 26 0 24 0;
#X connect 27 0 26 0;
#X connect 28 0 29 0;
#X connect 28 0 31 0;
#X connect 29 0 28 1;
#X connect 30 0 32 0;
#X connect 31 0 30 0;
#X connect 32 0 44 0;
#X connect 34 0 45 0;
#X connect 35 0 45 0;
#X connect 36 0 45 0;
#X connect 37 0 34 0;
#X connect 37 1 35 0;
#X connect 37 2 36 0;
#X connect 38 0 37 0;
#X connect 39 0 37 0;
#X connect 40 0 39 0;
#X connect 41 0 39 1;
#X connect 42 0 39 1;
#X connect 44 0 34 0;
#X connect 44 1 35 0;
#X connect 44 2 36 0;
#X connect 44 3 35 0;
#X connect 44 4 36 0;
#X connect 44 5 34 0;
#X connect 44 6 35 0;
#X connect 44 7 36 0;
#X connect 44 8 35 0;
#X connect 45 0 33 0;
#X connect 52 0 53 0;
#X connect 59 0 56 1;
#X connect 60 0 66 0;
#X connect 61 0 56 0;
#X connect 66 0 58 0;
