#N canvas 0 0 636 646 10;
#X obj 45 315 osc~;
#X obj 46 353 output~;
#X obj 41 37 tgl 15 0 empty empty empty 17 7 0 10 -262144 -1 -1 1 1
;
#X msg 41 68 \; pd dsp \$1;
#X obj 198 198 dac~ 1 2;
#X obj 198 159 readsf~ 2;
#X msg 198 123 open \$1;
#X obj 198 90 openpanel;
#X obj 198 58 bng 15 250 50 0 empty empty empty 17 7 0 10 -262144 -1
-1;
#X msg 136 124 start;
#X obj 273 198 bng 15 250 50 0 empty empty empty 17 7 0 10 -262144
-1 -1;
#X obj 311 197 env~;
#X obj 363 197 env~;
#X obj 311 230 - 100;
#X obj 363 230 - 100;
#X obj 302 286 vu 15 120 empty empty -1 -8 0 10 -66577 -1 1 0;
#X obj 364 287 vu 15 120 empty empty -1 -8 0 10 -66577 -1 1 0;
#X connect 0 0 1 0;
#X connect 2 0 3 0;
#X connect 5 0 4 0;
#X connect 5 0 11 0;
#X connect 5 1 4 1;
#X connect 5 1 12 0;
#X connect 5 2 10 0;
#X connect 6 0 5 0;
#X connect 7 0 6 0;
#X connect 8 0 7 0;
#X connect 9 0 5 0;
#X connect 11 0 13 0;
#X connect 12 0 14 0;
#X connect 13 0 15 1;
#X connect 14 0 16 0;
