#N canvas 0 0 999 613 10;
#X declare -lib mrpeach;
#X obj 103 -233 import mrpeach;
#X obj 103 128 outlet;
#X obj 103 -179 unpackOSC;
#X obj 103 -127 routeOSC /wii;
#X floatatom 103 106 5 0 0 0 - - -;
#X obj 103 -100 routeOSC /1;
#X text 101 -251 OSC;
#X obj 103 -206 udpreceive 8000;
#X obj 103 -73 routeOSC /accel;
#X obj 103 -46 routeOSC /pry;
#X obj 287 -46 routeOSC /xyz;
#X obj 103 -19 routeOSC /pitch;
#X obj 149 7 routeOSC /roll;
#X obj 195 34 routeOSC /yaw;
#X obj 241 60 routeOSC /accel;
#X obj 425 -73 routeOSC /button;
#X obj 149 128 outlet;
#X floatatom 149 106 5 0 0 0 - - -;
#X obj 195 128 outlet;
#X floatatom 195 106 5 0 0 0 - - -;
#X obj 241 128 outlet;
#X floatatom 241 106 5 0 0 0 - - -;
#X obj 425 -47 routeOSC /A;
#X obj 471 -22 routeOSC /B;
#X obj 517 2 routeOSC /1;
#X obj 563 26 routeOSC /2;
#X obj 608 -46 routeOSC /Minus;
#X obj 654 -22 routeOSC /Plus;
#X obj 700 2 routeOSC /Home;
#X obj 746 -46 routeOSC /Up;
#X obj 792 -21 routeOSC /Down;
#X obj 838 3 routeOSC /Left;
#X obj 885 27 routeOSC /Right;
#X obj 931 -73 routeOSC /ir;
#X obj 931 -47 routeOSC /x;
#X obj 977 -23 routeOSC /y;
#X obj 287 -19 routeOSC /x;
#X obj 333 5 routeOSC /y;
#X obj 379 29 routeOSC /z;
#X text 102 153 Accelerator;
#X text 286 154 Accelerator Raw;
#X text 425 155 Buttons;
#X text 929 151 IR-Camera;
#X obj 287 128 outlet;
#X floatatom 287 106 5 0 0 0 - - -;
#X obj 333 128 outlet;
#X floatatom 333 106 5 0 0 0 - - -;
#X obj 379 128 outlet;
#X floatatom 379 106 5 0 0 0 - - -;
#X obj 425 128 outlet;
#X floatatom 425 106 5 0 0 0 - - -;
#X obj 471 128 outlet;
#X floatatom 471 106 5 0 0 0 - - -;
#X obj 517 128 outlet;
#X floatatom 517 106 5 0 0 0 - - -;
#X obj 563 128 outlet;
#X floatatom 563 106 5 0 0 0 - - -;
#X obj 609 128 outlet;
#X floatatom 609 106 5 0 0 0 - - -;
#X obj 654 128 outlet;
#X floatatom 654 106 5 0 0 0 - - -;
#X obj 700 128 outlet;
#X floatatom 700 106 5 0 0 0 - - -;
#X obj 746 128 outlet;
#X floatatom 746 106 5 0 0 0 - - -;
#X obj 792 128 outlet;
#X floatatom 792 106 5 0 0 0 - - -;
#X obj 838 128 outlet;
#X floatatom 838 106 5 0 0 0 - - -;
#X obj 885 128 outlet;
#X floatatom 885 106 5 0 0 0 - - -;
#X obj 931 128 outlet;
#X floatatom 931 106 5 0 0 0 - - -;
#X obj 977 128 outlet;
#X floatatom 977 106 5 0 0 0 - - -;
#X connect 2 0 3 0;
#X connect 3 0 5 0;
#X connect 4 0 1 0;
#X connect 5 0 8 0;
#X connect 5 0 15 0;
#X connect 5 0 33 0;
#X connect 7 0 2 0;
#X connect 8 0 9 0;
#X connect 8 0 10 0;
#X connect 9 0 11 0;
#X connect 9 0 12 0;
#X connect 9 0 13 0;
#X connect 9 0 14 0;
#X connect 10 0 36 0;
#X connect 10 0 37 0;
#X connect 10 0 38 0;
#X connect 11 0 4 0;
#X connect 12 0 17 0;
#X connect 13 0 19 0;
#X connect 14 0 21 0;
#X connect 15 0 22 0;
#X connect 15 0 23 0;
#X connect 15 0 24 0;
#X connect 15 0 25 0;
#X connect 15 0 26 0;
#X connect 15 0 27 0;
#X connect 15 0 28 0;
#X connect 15 0 29 0;
#X connect 15 0 30 0;
#X connect 15 0 31 0;
#X connect 15 0 32 0;
#X connect 17 0 16 0;
#X connect 19 0 18 0;
#X connect 21 0 20 0;
#X connect 22 0 50 0;
#X connect 23 0 52 0;
#X connect 24 0 54 0;
#X connect 25 0 56 0;
#X connect 26 0 58 0;
#X connect 27 0 60 0;
#X connect 28 0 62 0;
#X connect 29 0 64 0;
#X connect 30 0 66 0;
#X connect 31 0 68 0;
#X connect 32 0 70 0;
#X connect 33 0 34 0;
#X connect 33 0 35 0;
#X connect 34 0 72 0;
#X connect 35 0 74 0;
#X connect 36 0 44 0;
#X connect 37 0 46 0;
#X connect 38 0 48 0;
#X connect 44 0 43 0;
#X connect 46 0 45 0;
#X connect 48 0 47 0;
#X connect 50 0 49 0;
#X connect 52 0 51 0;
#X connect 54 0 53 0;
#X connect 56 0 55 0;
#X connect 58 0 57 0;
#X connect 60 0 59 0;
#X connect 62 0 61 0;
#X connect 64 0 63 0;
#X connect 66 0 65 0;
#X connect 68 0 67 0;
#X connect 70 0 69 0;
#X connect 72 0 71 0;
#X connect 74 0 73 0;
#X coords 0 -1 1 1 920 75 1 100 100;
