#N canvas 0 0 1122 431 10;
#X declare -lib mrpeach;
#X obj 5 -316 import mrpeach;
#X obj 5 42 outlet;
#X obj 5 -222 unpackOSC;
#X obj 5 -254 udpreceive 8000;
#X obj 5 -168 routeOSC /accxyz;
#X obj 137 -168 routeOSC /1;
#X obj 137 -108 routeOSC /fader1;
#X floatatom 137 21 5 0 0 0 - - -;
#X obj 137 42 outlet;
#X text 2 -343 TouchOSC Simple;
#X obj 533 -168 routeOSC /2;
#X obj 638 -168 routeOSC /3;
#X obj 743 -168 routeOSC /4;
#X obj 357 -108 routeOSC /toggle1;
#X obj 181 -87 routeOSC /fader2;
#X obj 225 -66 routeOSC /fader3;
#X obj 269 -45 routeOSC /fader4;
#X obj 313 -24 routeOSC /fader5;
#X floatatom 181 21 5 0 0 0 - - -;
#X obj 181 42 outlet;
#X floatatom 225 21 5 0 0 0 - - -;
#X obj 225 42 outlet;
#X floatatom 269 21 5 0 0 0 - - -;
#X obj 269 42 outlet;
#X floatatom 313 21 5 0 0 0 - - -;
#X obj 313 42 outlet;
#X obj 5 -108 unpack f f f;
#X floatatom 5 20 5 0 0 0 - - -;
#X floatatom 49 21 5 0 0 0 - - -;
#X floatatom 93 21 5 0 0 0 - - -;
#X obj 49 42 outlet;
#X obj 93 42 outlet;
#X floatatom 357 21 5 0 0 0 - - -;
#X obj 357 42 outlet;
#X floatatom 401 21 5 0 0 0 - - -;
#X obj 401 42 outlet;
#X floatatom 445 21 5 0 0 0 - - -;
#X obj 445 42 outlet;
#X floatatom 489 21 5 0 0 0 - - -;
#X obj 489 42 outlet;
#X floatatom 533 21 5 0 0 0 - - -;
#X obj 533 42 outlet;
#X floatatom 638 21 5 0 0 0 - - -;
#X obj 638 42 outlet;
#X floatatom 743 21 5 0 0 0 - - -;
#X obj 743 42 outlet;
#X obj 533 -108 routeOSC /push1;
#X obj 638 -108 routeOSC /xy;
#X obj 743 -108 routeOSC /multitoggle;
#X text 3 -1 /accxyz;
#X text 135 0 /1/fader1..5;
#X text 356 0 /1/toggle1..4;
#X text 531 0 /2/push1..16;
#X text 635 0 /3/xy;
#X text 741 -1 /4/multitoggle;
#X obj 401 -88 routeOSC /toggle2;
#X obj 445 -68 routeOSC /toggle3;
#X obj 489 -48 routeOSC /toggle4;
#X connect 2 0 4 0;
#X connect 2 0 5 0;
#X connect 2 0 10 0;
#X connect 2 0 11 0;
#X connect 2 0 12 0;
#X connect 3 0 2 0;
#X connect 4 0 26 0;
#X connect 5 0 6 0;
#X connect 5 0 14 0;
#X connect 5 0 15 0;
#X connect 5 0 16 0;
#X connect 5 0 17 0;
#X connect 5 0 13 0;
#X connect 5 0 55 0;
#X connect 5 0 56 0;
#X connect 5 0 57 0;
#X connect 6 0 7 0;
#X connect 7 0 8 0;
#X connect 10 0 46 0;
#X connect 11 0 47 0;
#X connect 12 0 48 0;
#X connect 13 0 32 0;
#X connect 14 0 18 0;
#X connect 15 0 20 0;
#X connect 16 0 22 0;
#X connect 17 0 24 0;
#X connect 18 0 19 0;
#X connect 20 0 21 0;
#X connect 22 0 23 0;
#X connect 24 0 25 0;
#X connect 26 0 27 0;
#X connect 26 1 28 0;
#X connect 26 2 29 0;
#X connect 27 0 1 0;
#X connect 28 0 30 0;
#X connect 29 0 31 0;
#X connect 32 0 33 0;
#X connect 34 0 35 0;
#X connect 36 0 37 0;
#X connect 38 0 39 0;
#X connect 40 0 41 0;
#X connect 42 0 43 0;
#X connect 44 0 45 0;
#X connect 46 0 40 0;
#X connect 47 0 42 0;
#X connect 48 0 44 0;
#X connect 55 0 34 0;
#X connect 56 0 36 0;
#X connect 57 0 38 0;
#X coords 0 -1 1 1 800 45 1 0 0;
