#N canvas 588 3 752 704 10;
#X declare -lib mrpeach;
#X obj -126 34 tgl 15 0 empty empty empty 17 7 0 10 -262144 -1 -1 1
1;
#X msg -126 65 \; pd dsp \$1;
#X obj 320 485 *~;
#X obj 471 285 knob 32 32 0 10 0 1 empty empty empty 0 -8 0 8 -262144
-1 -1 700 1;
#X obj -125 632 dac~ 1 2;
#X obj 320 357 osc~ 440;
#X obj 471 353 osc~ 2;
#X obj 471 388 *~;
#X obj 550 286 vsl 15 40 0 1 0 1 empty empty empty 0 -9 0 10 -262144
-1 -1 2500 1;
#X floatatom 358 255 5 0 0 0 - - -;
#X text 469 260 Rate;
#X text 540 261 Depth;
#X obj -129 241 tabwrite~ oscilator;
#X obj -129 212 metro 50;
#X obj -129 184 tgl 15 0 empty empty empty 17 7 0 10 -262144 -1 -1
1 1;
#N canvas 0 0 450 300 (subpatch) 0;
#X array oscilator 100 float 3;
#A 0 -0.00336056 -0.00258525 -0.00179537 -0.000994197 -0.000184934
0.000629238 0.00144498 0.00225891 0.00306759 0.00386758 0.00465526
0.00542705 0.0061797 0.00690978 0.00761385 0.00828854 0.00893052 0.00953647
0.0101028 0.0106269 0.0111056 0.0115362 0.0119158 0.0122417 0.0125115
0.0127224 0.0128724 0.0129596 0.0129821 0.0129383 0.0128267 0.012646
0.0123949 0.0120723 0.0116779 0.0112113 0.0106724 0.010061 0.00937756
0.00862244 0.00779616 0.00689978 0.00593467 0.00490229 0.00380432 0.00264268
0.00141952 0.000137221 -0.00120176 -0.0025944 -0.00403761 -0.0055281
-0.00706241 -0.00863684 -0.0102475 -0.0118904 -0.0135613 -0.0152556
-0.0169689 -0.0186964 -0.0204334 -0.0221748 -0.0239157 -0.0256508 -0.0273747
-0.0290821 -0.0307678 -0.0324263 -0.0340522 -0.0356401 -0.0371845 -0.0386798
-0.0401203 -0.0415008 -0.0428162 -0.0440613 -0.0452309 -0.04632 -0.0473238
-0.0482374 -0.0490559 -0.0497746 -0.0503898 -0.0508973 -0.0512933 -0.0515741
-0.0517363 -0.103935 -0.10425 -0.104436 -0.104493 -0.104417 -0.104208
-0.103864 -0.103383 -0.102765 -0.102009 -0.101115 -0.100082 -0.0989121
;
#X coords 0 1 99 -1 200 140 1;
#X restore -130 285 graph;
#X obj -52 212 r~ osc;
#X obj 239 623 s~ osc;
#X obj 320 227 mtof;
#X obj 320 254 sig~;
#X floatatom 275 103 5 0 0 0 - - -;
#X obj 335 49 hradio 15 1 1 12 empty empty empty 0 -8 0 10 -262144
-1 -1 5;
#X obj 335 102 + 12;
#X obj 335 76 * 12;
#X floatatom 320 158 5 0 0 0 - - -;
#X text 333 31 Octave;
#X obj 275 78 bng 15 250 50 0 empty empty empty 17 7 0 10 -262144 -1
-1;
#X msg 402 77 12;
#X obj 320 131 +;
#X obj 417 515 line~;
#X msg 417 491 \$1 50;
#X obj 417 447 knob 32 32 0 2 0 1 empty empty empty 0 -8 0 8 -262144
-1 -1 3000 1;
#X obj 319 328 *~;
#X obj 471 125 knob 32 32 0 10 0 1 empty empty empty 0 -8 0 8 -262144
-1 -1 300 1;
#X obj 471 193 osc~ 2;
#X obj 471 228 *~;
#X obj 550 126 vsl 15 40 0 1 0 1 empty empty empty 0 -9 0 10 -262144
-1 -1 2800 1;
#X text 469 100 Mod Freq;
#X text 541 101 Mod Index;
#N canvas 216 187 1038 433 osc 0;
#X obj 35 70 import mrpeach;
#X obj 36 389 outlet;
#X obj 175 388 outlet;
#X obj 35 145 unpackOSC;
#X obj 35 176 routeOSC /wii;
#X floatatom 36 301 5 0 0 0 - - -;
#X obj 35 206 routeOSC /1;
#X obj 36 238 routeOSC /right;
#X text 33 52 OSC;
#X obj 35 113 udpreceive 8000;
#X obj 175 174 routeOSC /accxyz;
#X obj 309 174 routeOSC /1;
#X obj 309 234 routeOSC /fader1;
#X floatatom 309 303 5 0 0 0 - - -;
#X obj 309 384 outlet;
#X obj -207 177 OSCroute /accxyz /1/fader1 /1/fader2;
#X text 543 150 TouchOSC;
#X obj 548 300 udpsend;
#X msg 548 171 connect 192.168.1.200;
#X msg 561 195 disconnect;
#X obj 699 255 packOSC;
#X obj 699 169 metro 250;
#X obj 699 145 tgl 15 0 empty empty empty 17 7 0 10 -262144 -1 -1 0
1;
#X obj 548 326 tgl 15 0 empty empty empty 17 7 0 10 -262144 -1 -1 0
1;
#X obj 699 196 randomF 1;
#X msg 699 228 send /1/fader1 \$1;
#X connect 3 0 4 0;
#X connect 3 0 10 0;
#X connect 3 0 11 0;
#X connect 3 0 15 0;
#X connect 4 0 6 0;
#X connect 5 0 1 0;
#X connect 6 0 7 0;
#X connect 7 0 5 0;
#X connect 9 0 3 0;
#X connect 10 0 2 0;
#X connect 11 0 12 0;
#X connect 12 0 13 0;
#X connect 13 0 14 0;
#X connect 17 0 23 0;
#X connect 18 0 17 0;
#X connect 19 0 17 0;
#X connect 20 0 17 0;
#X connect 21 0 24 0;
#X connect 22 0 21 0;
#X connect 24 0 25 0;
#X connect 25 0 20 0;
#X restore 13 81 pd osc;
#X floatatom 29 108 5 0 0 0 - - -;
#X obj 29 135 s osc_acc;
#X obj 472 76 r osc_acc;
#X obj -124 450 r~ lvu;
#X obj 367 742 s~ rvu;
#X obj 321 742 s~ lvu;
#X obj -47 450 r~ rvu;
#X obj 156 357 noise~;
#X obj 319 672 vcf~;
#X obj 331 570 mtof~;
#X text 344 486 Amplifier;
#X text 468 165 Frequency Modulator;
#X text 468 326 Amplitude Modulator;
#X obj 334 550 hsl 128 15 0 127 0 1 empty empty empty -2 -8 0 10 -262144
-1 -1 6900 1;
#X obj 156 485 *~;
#X obj 472 447 knob 32 32 0 10 0 1 empty empty empty 0 -8 0 8 -262144
-1 -1 2500 1;
#X obj 472 515 osc~ 2;
#X obj 472 550 *~;
#X obj 551 448 vsl 15 40 0 1 0 1 empty empty empty 0 -9 0 10 -262144
-1 -1 1900 1;
#X text 470 422 Rate;
#X text 541 423 Depth;
#X text 374 358 Oscilator;
#X text 344 329 FM;
#X text 352 227 MIDI-IN;
#X text 176 545 Amplifier;
#X obj 471 596 knob 32 32 0 10 0 1 empty empty empty 0 -8 0 8 -262144
-1 -1 3100 1;
#X text 470 633 Resonance;
#X text 469 487 Amplitude Modulator;
#X obj 239 485 *~;
#X obj 239 227 mtof;
#X obj 160 159 hsl 128 15 0 127 0 1 empty empty empty -2 -8 0 10 -262144
-1 -1 7400 1;
#X floatatom 277 255 5 0 0 0 - - -;
#X obj 239 254 sig~;
#X obj 238 328 *~;
#X text 263 329 FM;
#X obj 213 418 expr~ $v1 > 0.5;
#X obj 239 357 phasor~ 330;
#X obj 239 544 *~;
#X obj 330 642 +~;
#X text -107 183 Graph output;
#X text -103 34 DSP on;
#X text 255 374 Sawtooth;
#X text 343 375 Sine;
#X obj 91 358 adc~;
#X obj 91 485 *~;
#X text 88 330 Ring- modulator;
#X obj -126 5 loadbang;
#X obj -129 154 loadbang;
#X obj -125 478 mVU~;
#X connect 0 0 1 0;
#X connect 2 0 77 0;
#X connect 3 0 6 0;
#X connect 5 0 2 0;
#X connect 6 0 7 0;
#X connect 7 0 2 1;
#X connect 7 0 68 1;
#X connect 7 0 54 1;
#X connect 8 0 7 1;
#X connect 13 0 12 0;
#X connect 14 0 13 0;
#X connect 16 0 12 0;
#X connect 18 0 19 0;
#X connect 18 0 9 0;
#X connect 19 0 32 0;
#X connect 20 0 28 0;
#X connect 21 0 23 0;
#X connect 22 0 28 1;
#X connect 23 0 22 0;
#X connect 24 0 18 0;
#X connect 26 0 20 0;
#X connect 27 0 23 1;
#X connect 28 0 24 0;
#X connect 29 0 77 1;
#X connect 30 0 29 0;
#X connect 31 0 30 0;
#X connect 32 0 5 0;
#X connect 33 0 34 0;
#X connect 34 0 35 0;
#X connect 35 0 32 1;
#X connect 35 0 73 1;
#X connect 36 0 35 1;
#X connect 39 1 40 0;
#X connect 40 0 41 0;
#X connect 42 0 33 0;
#X connect 43 0 88 0;
#X connect 46 0 88 1;
#X connect 48 0 45 0;
#X connect 48 0 44 0;
#X connect 49 0 78 0;
#X connect 53 0 49 0;
#X connect 54 0 77 0;
#X connect 55 0 56 0;
#X connect 56 0 57 0;
#X connect 57 0 78 1;
#X connect 58 0 57 1;
#X connect 65 0 48 2;
#X connect 68 0 77 0;
#X connect 69 0 72 0;
#X connect 69 0 71 0;
#X connect 70 0 69 0;
#X connect 72 0 73 0;
#X connect 73 0 76 0;
#X connect 76 0 68 0;
#X connect 76 0 75 0;
#X connect 77 0 17 0;
#X connect 77 0 48 0;
#X connect 78 0 48 1;
#X connect 83 0 84 0;
#X connect 86 0 0 0;
#X connect 87 0 14 0;
#X connect 88 0 4 0;
#X connect 88 1 4 1;
