#N canvas 176 13 395 532 10;
#X obj 30 66 inlet trigger;
#X obj 129 66 inlet attack;
#X obj 222 66 inlet decay;
#X text 29 21 Envelope Generator \, EG \, Env \, AREG (Attack-ReleasEG)
;
#X obj 30 454 outlet;
#X obj 129 136 t f f;
#X obj 30 238 t b b;
#X obj 30 279 del 50;
#X obj 30 323 f 50;
#X obj 135 323 f 50;
#X msg 30 358 0 \$1;
#X msg 135 358 1 \$1;
#X obj 30 419 line;
#X connect 0 0 6 0;
#X connect 1 0 5 0;
#X connect 2 0 8 1;
#X connect 5 0 7 1;
#X connect 5 1 9 1;
#X connect 6 0 7 0;
#X connect 6 1 9 0;
#X connect 7 0 8 0;
#X connect 8 0 10 0;
#X connect 9 0 11 0;
#X connect 10 0 12 0;
#X connect 11 0 12 0;
#X connect 12 0 4 0;
