#N canvas 0 0 450 300 10;
#X floatatom 283 90 5 0 0 0 - - -;
#X floatatom 283 161 5 0 0 0 - - -;
#X obj 283 126 expr 60 * 1000 / $f1;
#X obj 283 23 inlet bpm;
#X obj 283 238 outlet ms_per_beat;
#X connect 0 0 2 0;
#X connect 1 0 4 0;
#X connect 2 0 1 0;
#X connect 3 0 0 0;
