#N canvas 75 181 657 431 10;
#X obj 401 56 inlet~ xfade;
#X obj 263 55 inlet~ signal2;
#X obj 126 55 inlet~ signal1;
#X obj 125 234 *~;
#X obj 188 348 outlet~;
#X obj 264 234 *~;
#X obj 385 187 -~;
#X obj 384 125 sig~ 1;
#X connect 0 0 6 1;
#X connect 0 0 3 1;
#X connect 1 0 5 0;
#X connect 2 0 3 0;
#X connect 3 0 4 0;
#X connect 5 0 4 0;
#X connect 6 0 5 1;
#X connect 7 0 6 0;
