#N canvas 25 10 450 481 10;
#X declare -lib mrpeach;
#X obj 84 187 mSequencer;
#X obj 137 135 mOSC;
#X obj 82 135 mMIDI;
#X obj 192 386 mMixer~;
#X obj 82 92 mGUI;
#X obj 185 135 mLibpd;
#X obj 210 305 mDrumKit~;
#X obj 290 305 mSampler~;
#X obj 89 300 mSynth~;
#X obj 291 389 mFX~;
#X text 37 20 Digital Audio Workstation (DAW);
#X connect 3 2 9 0;
#X connect 6 0 3 2;
#X connect 6 1 3 3;
#X connect 7 0 3 2;
#X connect 7 1 3 3;
#X connect 8 0 3 0;
#X connect 9 0 3 4;
