#N canvas 607 67 697 521 10;
#X text 46 -26 Demultiplexer;
#X text 46 3 Signal Source Selector;
#X text 47 35 Multiway Switch;
#X obj 42 154 inlet~ signal1;
#X obj 437 -3 inlet routing;
#X obj 292 154 inlet~ signal3;
#X obj 167 154 inlet~ signal2;
#X obj 43 324 *~;
#X obj 168 324 *~;
#X obj 291 324 *~;
#X obj 167 443 outlet~;
#X obj 415 221 lop~ 80;
#X obj 437 25 sel 0 1 2 3;
#X obj 437 155 unpack f f f;
#X obj 437 183 sig~;
#X obj 472 221 lop~ 80;
#X obj 471 183 sig~;
#X obj 529 221 lop~ 80;
#X obj 506 183 sig~;
#X msg 437 51 0 0 0;
#X msg 452 76 1 0 0;
#X msg 468 102 0 1 0;
#X msg 484 128 0 0 1;
#X connect 3 0 7 0;
#X connect 4 0 12 0;
#X connect 5 0 9 0;
#X connect 6 0 8 0;
#X connect 7 0 10 0;
#X connect 8 0 10 0;
#X connect 9 0 10 0;
#X connect 11 0 7 1;
#X connect 12 0 19 0;
#X connect 12 1 20 0;
#X connect 12 2 21 0;
#X connect 12 3 22 0;
#X connect 13 0 14 0;
#X connect 13 1 16 0;
#X connect 13 2 18 0;
#X connect 14 0 11 0;
#X connect 15 0 8 1;
#X connect 16 0 15 0;
#X connect 17 0 9 1;
#X connect 18 0 17 0;
#X connect 19 0 13 0;
#X connect 20 0 13 0;
#X connect 21 0 13 0;
#X connect 22 0 13 0;
