#N canvas 475 12 859 474 10;
#X text 31 29 Drum Kit;
#X obj 38 429 outlet~ left;
#X obj 249 429 outlet~ right;
#X obj 251 94 inlet bd-trigger;
#X obj 361 94 inlet sd-trigger;
#X obj 471 94 inlet chh-trigger;
#X obj 589 94 inlet ohh-trigger;
#X obj 706 94 inlet cymbal-trigger;
#X obj 31 94 inlet MIDI;
#X obj 38 361 *~;
#X obj 94 361 *~;
#X obj 150 361 *~;
#X obj 66 361 *~;
#X obj 122 361 *~;
#X obj 249 361 *~;
#X obj 305 361 *~;
#X obj 361 361 *~;
#X obj 277 361 *~;
#X obj 333 361 *~;
#X connect 9 0 1 0;
#X connect 10 0 1 0;
#X connect 11 0 1 0;
#X connect 12 0 1 0;
#X connect 13 0 1 0;
#X connect 14 0 2 0;
#X connect 15 0 2 0;
#X connect 16 0 2 0;
#X connect 17 0 2 0;
#X connect 18 0 2 0;
