#N canvas 0 0 450 300 10;
#X text 23 11 Envelope Generator \, Env \, EG;
#X obj 47 245 outlet;
#X obj 51 82 inlet;
#X obj 123 81 inlet;
#X obj 198 81 inlet;
#X obj 272 81 inlet;
#X text 50 57 Attack;
#X text 123 57 Decay;
#X text 198 57 Sustain;
#X text 271 59 Release;
