#N canvas 754 334 450 300 10;
#X obj 75 201 osc~ 2;
#X obj 75 236 *~;
#X text 12 15 Modulator;
#X text 80 106 Mod Freq;
#X text 158 107 Mod Index;
#X text 80 115 Rate;
#X text 158 116 Depth;
#X obj 74 274 outlet~;
#X obj 75 64 inlet Rate;
#X obj 154 64 inlet Range;
#X text 293 69 Shape;
#X text 307 88 Triangle;
#X text 307 106 Square;
#X text 130 201 Sinus;
#X connect 0 0 1 0;
#X connect 1 0 7 0;
#X connect 8 0 0 0;
#X connect 9 0 0 1;
