#N canvas 448 33 774 530 10;
#X text 613 108 FX as insert or mixin;
#X obj 23 335 *~;
#X obj 22 59 inlet~ instr1;
#X obj 159 60 inlet~ instr2;
#X obj 613 59 inlet~ fx;
#X obj 608 414 outlet~ fx;
#X obj 159 335 *~;
#X obj 296 334 *~;
#X obj 298 414 outlet~ left-out;
#X obj 441 414 outlet~ right-out;
#X obj 442 334 *~;
#X obj 481 159 vsl 15 128 0 127 0 0 empty empty empty 0 -9 0 10 -262144
-1 -1 0 1;
#X obj 501 159 vsl 15 128 0 127 0 0 empty empty empty 0 -9 0 10 -262144
-1 -1 0 1;
#X obj 522 159 vsl 15 128 0 127 0 0 empty empty empty 0 -9 0 10 -262144
-1 -1 0 1;
#X obj 542 159 vsl 15 128 0 127 0 0 empty empty empty 0 -9 0 10 -262144
-1 -1 0 1;
#X obj 296 59 inlet~ stereo-left;
#X obj 441 59 inlet~ stereo-right;
#X connect 1 0 8 0;
#X connect 1 0 9 0;
#X connect 2 0 1 0;
#X connect 3 0 6 0;
#X connect 6 0 8 0;
#X connect 6 0 9 0;
#X connect 7 0 8 0;
#X connect 10 0 9 0;
#X connect 11 0 1 1;
#X connect 12 0 6 1;
#X connect 13 0 7 1;
#X connect 14 0 10 1;
#X connect 15 0 7 0;
#X connect 16 0 10 0;
#X coords 0 530 1 529 105 128 0;
