#N canvas 0 0 1320 463 10;
#X declare -lib mrpeach;
#X obj 35 -224 import mrpeach;
#X obj 35 -131 unpackOSC;
#X obj 35 -79 routeOSC /wii;
#X floatatom 35 154 5 0 0 0 - - -;
#X obj 35 -52 routeOSC /1;
#X obj 35 -25 routeOSC /accel;
#X obj 35 2 routeOSC /pry;
#X obj 219 2 routeOSC /xyz;
#X obj 35 29 routeOSC /pitch;
#X obj 81 55 routeOSC /roll;
#X obj 127 82 routeOSC /yaw;
#X obj 173 108 routeOSC /accel;
#X obj 357 -25 routeOSC /button;
#X floatatom 81 154 5 0 0 0 - - -;
#X floatatom 127 154 5 0 0 0 - - -;
#X floatatom 173 154 5 0 0 0 - - -;
#X obj 357 1 routeOSC /A;
#X obj 403 26 routeOSC /B;
#X obj 449 50 routeOSC /1;
#X obj 495 74 routeOSC /2;
#X obj 540 2 routeOSC /Minus;
#X obj 586 26 routeOSC /Plus;
#X obj 632 50 routeOSC /Home;
#X obj 678 2 routeOSC /Up;
#X obj 724 27 routeOSC /Down;
#X obj 770 51 routeOSC /Left;
#X obj 817 75 routeOSC /Right;
#X obj 863 -25 routeOSC /ir;
#X obj 863 1 routeOSC /x;
#X obj 909 25 routeOSC /y;
#X obj 219 29 routeOSC /x;
#X obj 265 53 routeOSC /y;
#X obj 311 77 routeOSC /z;
#X floatatom 219 154 5 0 0 0 - - -;
#X floatatom 265 154 5 0 0 0 - - -;
#X floatatom 311 154 5 0 0 0 - - -;
#X floatatom 357 154 5 0 0 0 - - -;
#X floatatom 403 154 5 0 0 0 - - -;
#X floatatom 449 154 5 0 0 0 - - -;
#X floatatom 495 154 5 0 0 0 - - -;
#X floatatom 541 154 5 0 0 0 - - -;
#X floatatom 586 154 5 0 0 0 - - -;
#X floatatom 632 154 5 0 0 0 - - -;
#X floatatom 678 154 5 0 0 0 - - -;
#X floatatom 724 154 5 0 0 0 - - -;
#X floatatom 770 154 5 0 0 0 - - -;
#X floatatom 817 154 5 0 0 0 - - -;
#X floatatom 863 154 5 0 0 0 - - -;
#X floatatom 909 154 5 0 0 0 - - -;
#X obj 954 -118 unpackOSC;
#X obj 954 -145 udpreceive 8000;
#X obj 954 -25 routeOSC /accxyz;
#X obj 1086 -60 routeOSC /1;
#X obj 1262 26 routeOSC /fader1;
#X floatatom 1262 155 5 0 0 0 - - -;
#X text 961 -72 TouchOSC Simple;
#X obj 1482 -60 routeOSC /2;
#X obj 1587 -60 routeOSC /3;
#X obj 1692 -60 routeOSC /4;
#X obj 1086 26 routeOSC /toggle1;
#X obj 1306 47 routeOSC /fader2;
#X obj 1350 68 routeOSC /fader3;
#X obj 1394 89 routeOSC /fader4;
#X obj 1438 110 routeOSC /fader5;
#X floatatom 1306 155 5 0 0 0 - - -;
#X floatatom 1350 155 5 0 0 0 - - -;
#X floatatom 1394 155 5 0 0 0 - - -;
#X floatatom 1438 155 5 0 0 0 - - -;
#X obj 954 74 unpack f f f;
#X floatatom 954 154 5 0 0 0 - - -;
#X floatatom 998 155 5 0 0 0 - - -;
#X floatatom 1042 155 5 0 0 0 - - -;
#X floatatom 1086 155 5 0 0 0 - - -;
#X floatatom 1130 155 5 0 0 0 - - -;
#X floatatom 1174 155 5 0 0 0 - - -;
#X floatatom 1218 155 5 0 0 0 - - -;
#X floatatom 1482 155 5 0 0 0 - - -;
#X floatatom 1587 155 5 0 0 0 - - -;
#X floatatom 1692 155 5 0 0 0 - - -;
#X obj 1482 26 routeOSC /push1;
#X obj 1587 26 routeOSC /xy;
#X obj 1692 26 routeOSC /multitoggle;
#X text 952 133 /accxyz;
#X text 1260 134 /1/fader1..5;
#X text 1085 134 /1/toggle1..4;
#X text 1480 134 /2/push1..16;
#X text 1584 134 /3/xy;
#X text 1690 133 /4/multitoggle;
#X text 32 -247 OSC Open Sound Control;
#X text 43 -103 Wiimote;
#X obj 35 -159 udpreceive 9000;
#X obj 1130 46 routeOSC /toggle2;
#X obj 1174 66 routeOSC /toggle3;
#X obj 1218 86 routeOSC /toggle4;
#X connect 1 0 2 0;
#X connect 2 0 4 0;
#X connect 4 0 5 0;
#X connect 4 0 12 0;
#X connect 4 0 27 0;
#X connect 5 0 6 0;
#X connect 5 0 7 0;
#X connect 6 0 8 0;
#X connect 6 0 9 0;
#X connect 6 0 10 0;
#X connect 6 0 11 0;
#X connect 7 0 30 0;
#X connect 7 0 31 0;
#X connect 7 0 32 0;
#X connect 8 0 3 0;
#X connect 9 0 13 0;
#X connect 10 0 14 0;
#X connect 11 0 15 0;
#X connect 12 0 16 0;
#X connect 12 0 17 0;
#X connect 12 0 18 0;
#X connect 12 0 19 0;
#X connect 12 0 20 0;
#X connect 12 0 21 0;
#X connect 12 0 22 0;
#X connect 12 0 23 0;
#X connect 12 0 24 0;
#X connect 12 0 25 0;
#X connect 12 0 26 0;
#X connect 16 0 36 0;
#X connect 17 0 37 0;
#X connect 18 0 38 0;
#X connect 19 0 39 0;
#X connect 20 0 40 0;
#X connect 21 0 41 0;
#X connect 22 0 42 0;
#X connect 23 0 43 0;
#X connect 24 0 44 0;
#X connect 25 0 45 0;
#X connect 26 0 46 0;
#X connect 27 0 28 0;
#X connect 27 0 29 0;
#X connect 28 0 47 0;
#X connect 29 0 48 0;
#X connect 30 0 33 0;
#X connect 31 0 34 0;
#X connect 32 0 35 0;
#X connect 49 0 51 0;
#X connect 49 0 52 0;
#X connect 49 0 56 0;
#X connect 49 0 57 0;
#X connect 49 0 58 0;
#X connect 50 0 49 0;
#X connect 51 0 68 0;
#X connect 52 0 53 0;
#X connect 52 0 60 0;
#X connect 52 0 61 0;
#X connect 52 0 62 0;
#X connect 52 0 63 0;
#X connect 52 0 59 0;
#X connect 52 0 91 0;
#X connect 52 0 92 0;
#X connect 52 0 93 0;
#X connect 53 0 54 0;
#X connect 56 0 79 0;
#X connect 56 0 59 0;
#X connect 56 0 91 0;
#X connect 56 0 92 0;
#X connect 56 0 93 0;
#X connect 57 0 80 0;
#X connect 57 0 59 0;
#X connect 57 0 91 0;
#X connect 57 0 92 0;
#X connect 57 0 93 0;
#X connect 58 0 81 0;
#X connect 58 0 59 0;
#X connect 58 0 91 0;
#X connect 58 0 92 0;
#X connect 58 0 93 0;
#X connect 59 0 72 0;
#X connect 60 0 64 0;
#X connect 61 0 65 0;
#X connect 62 0 66 0;
#X connect 63 0 67 0;
#X connect 68 0 69 0;
#X connect 68 1 70 0;
#X connect 68 2 71 0;
#X connect 79 0 76 0;
#X connect 80 0 77 0;
#X connect 81 0 78 0;
#X connect 90 0 1 0;
#X connect 91 0 73 0;
#X connect 92 0 74 0;
#X connect 93 0 75 0;
