#N canvas 59 2 925 699 10;
#X obj 71 167 mLFO;
#X obj 522 131 mVCO;
#X text 20 6 Synthesizer \, Modular;
#X obj 71 379 mEG;
#X text 463 212 Mixer;
#X obj 521 212 *~;
#X obj 520 383 mVCA;
#X obj 651 131 noise~;
#X obj 71 450 mEG;
#X obj 520 300 mVCF;
#X text 460 298 Filter;
#X text 442 383 Amplifier;
#X text 430 130 Oscillators;
#X text 262 131 Modulation;
#X text 306 156 FM;
#X text 300 175 PWM;
#X text 24 132 Modulation Generators;
#X obj 520 485 outlet~;
#X obj 71 201 s~ \$0-lfo1;
#X obj 71 271 s~ \$0-lfo2;
#X obj 71 341 s \$0-env1;
#X obj 71 412 s \$0-env2;
#X obj 71 482 s \$0-env3;
#X text 306 197 AM;
#X text 280 221 VCF-Mod;
#X obj 583 78 r~ \$0-lfo1;
#X obj 71 308 mAREG;
#X obj 71 237 mLFO;
#X obj 581 132 mVCO;
#X obj 739 132 adc~;
#X text 737 109 Ext In;
#X connect 0 0 18 0;
#X connect 1 0 5 0;
#X connect 3 0 21 0;
#X connect 5 0 9 0;
#X connect 6 0 17 0;
#X connect 7 0 5 0;
#X connect 8 0 22 0;
#X connect 9 0 6 0;
#X connect 25 0 28 1;
#X connect 26 0 20 0;
#X connect 27 0 19 0;
#X connect 28 0 5 0;
