#N canvas 0 0 586 448 10;
#X obj 58 381 outlet~;
#X text 377 71 Mod LFO;
#X text 456 70 Mod Env;
#X obj 178 107 inlet Cutoff;
#X obj 268 107 inlet Resonance;
#X text 177 69 Cutoff Frequency;
#X text 292 66 Resonance;
#X text 292 82 Peak;
#X text 25 20 VCF (Voltage Controlled Filter);
#X obj 58 107 inlet~ Signal;
#X obj 377 107 inlet Mod;
#X obj 456 107 inlet EnvMod;
#X obj 131 229 bp~;
#X obj 131 256 hip~;
#X obj 131 282 lop~;
#X obj 87 229 vcf~;
#X connect 9 0 15 0;
#X connect 15 0 0 0;
