#N canvas 150 93 1057 585 10;
#X text 19 15 VCO;
#X obj 69 302 osc~ 440;
#X obj 69 154 mtof;
#X obj 69 182 sig~;
#X obj 68 213 *~;
#X obj 68 488 outlet~;
#X obj 69 420 mDemux;
#X text 121 421 Select Waveform;
#X text 76 272 Sine;
#X text 276 271 Square;
#X obj 170 302 phasor~;
#X text 170 271 Sawtooth;
#X text 503 271 Rectangle;
#X obj -37 153 inlet Detune;
#X obj 218 60 inlet Octave;
#X obj 420 91 sig~;
#X obj 348 119 *~;
#X obj 585 61 inlet~ PWM;
#X obj 671 92 sig~;
#X obj 586 120 *~;
#X text 584 35 Pulse Width Modulation (PWM);
#X obj 515 61 inlet PW;
#X obj 347 61 inlet~ FM;
#X obj 420 61 inlet ModInt;
#X text 347 41 Frequency Modulation;
#X text 67 40 Pitch;
#X obj 69 60 inlet PitchAsMidiNote;
#X obj 671 61 inlet ModInt;
#X obj 853 61 inlet Waveform;
#X text -37 189 Fine Tune;
#X text -38 175 Coarse Tune;
#X obj 218 91 sel 0 1 2 3;
#X connect 1 0 6 0;
#X connect 2 0 3 0;
#X connect 3 0 4 0;
#X connect 4 0 1 0;
#X connect 6 0 5 0;
#X connect 10 0 6 1;
#X connect 14 0 31 0;
#X connect 15 0 16 1;
#X connect 16 0 4 1;
#X connect 17 0 19 0;
#X connect 18 0 19 1;
#X connect 22 0 16 0;
#X connect 23 0 15 0;
#X connect 26 0 2 0;
#X connect 27 0 18 0;
#X connect 28 0 6 3;
